<?xml version="1.0" encoding="utf-8"?><svg xmlns="http://www.w3.org/2000/svg" xmlns:xlink="http://www.w3.org/1999/xlink"><symbol viewBox="0 0 451.847 451.847" id="arrow-down" xmlns="http://www.w3.org/2000/svg"><path d="M225.923 354.706c-8.098 0-16.195-3.092-22.369-9.263L9.27 151.157c-12.359-12.359-12.359-32.397 0-44.751 12.354-12.354 32.388-12.354 44.748 0l171.905 171.915 171.906-171.909c12.359-12.354 32.391-12.354 44.744 0 12.365 12.354 12.365 32.392 0 44.751L248.292 345.449c-6.177 6.172-14.274 9.257-22.369 9.257z" data-original="#000000" xmlns="http://www.w3.org/2000/svg"/></symbol><symbol viewBox="0 0 464.205 464.205" id="burger" xmlns="http://www.w3.org/2000/svg"><path d="M435.192 406.18H29.013C12.989 406.18 0 393.19 0 377.167s12.989-29.013 29.013-29.013h406.18c16.023 0 29.013 12.99 29.013 29.013-.001 16.023-12.99 29.013-29.014 29.013zm0-145.065H29.013C12.989 261.115 0 248.126 0 232.103s12.989-29.013 29.013-29.013h406.18c16.023 0 29.013 12.989 29.013 29.013s-12.99 29.012-29.014 29.012zm0-145.064H29.013C12.989 116.051 0 103.062 0 87.038s12.989-29.013 29.013-29.013h406.18c16.023 0 29.013 12.989 29.013 29.013s-12.99 29.013-29.014 29.013z" data-original="#000000" xmlns="http://www.w3.org/2000/svg"/></symbol><symbol viewBox="0 0 320.591 320.591" id="close" xmlns="http://www.w3.org/2000/svg"><g xmlns="http://www.w3.org/2000/svg"><path d="M30.391 318.583a30.37 30.37 0 0 1-21.56-7.288c-11.774-11.844-11.774-30.973 0-42.817L266.643 10.665c12.246-11.459 31.462-10.822 42.921 1.424 10.362 11.074 10.966 28.095 1.414 39.875L51.647 311.295a30.366 30.366 0 0 1-21.256 7.288z" data-original="#000000"/><path d="M287.9 318.583a30.37 30.37 0 0 1-21.257-8.806L8.83 51.963C-2.078 39.225-.595 20.055 12.143 9.146c11.369-9.736 28.136-9.736 39.504 0l259.331 257.813c12.243 11.462 12.876 30.679 1.414 42.922-.456.487-.927.958-1.414 1.414a30.368 30.368 0 0 1-23.078 7.288z" data-original="#000000"/></g></symbol><symbol viewBox="0 0 49.652 49.652" id="facebook" xmlns="http://www.w3.org/2000/svg"><path d="M24.826 0C11.137 0 0 11.137 0 24.826c0 13.688 11.137 24.826 24.826 24.826 13.688 0 24.826-11.138 24.826-24.826C49.652 11.137 38.516 0 24.826 0zM31 25.7h-4.039v14.396h-5.985V25.7h-2.845v-5.088h2.845v-3.291c0-2.357 1.12-6.04 6.04-6.04l4.435.017v4.939h-3.219c-.524 0-1.269.262-1.269 1.386v2.99h4.56z" data-original="#000000" xmlns="http://www.w3.org/2000/svg"/></symbol><symbol viewBox="0 0 220 220" id="google-plus" xmlns="http://www.w3.org/2000/svg"><path xmlns="http://www.w3.org/2000/svg" d="M110 0C49.249 0 0 49.247 0 110s49.249 110 110 110 110-49.247 110-110S170.75 0 110 0zm27.625 110c0 27.604-22.457 50.061-50.061 50.061S37.503 137.604 37.503 110 59.96 59.939 87.564 59.939c11.137 0 21.688 3.585 30.512 10.368l-11.623 15.119c-5.461-4.198-11.993-6.417-18.889-6.417-17.088 0-30.99 13.902-30.99 30.99s13.902 30.99 30.99 30.99c13.763 0 25.459-9.018 29.49-21.455h-29.49v-19.07h50.061V110zm52.705 6.234h-14.34v14.342h-12.47v-14.342h-14.334v-12.469h14.334V89.424h12.47v14.342h14.34v12.468z" data-original="#000000"/></symbol><symbol viewBox="0 0 409.61 409.61" id="insta" xmlns="http://www.w3.org/2000/svg"><path d="M307.205 0h-204.8C46.09 0 .005 46.085.005 102.4v204.81c0 56.3 46.085 102.4 102.4 102.4h204.8c56.315 0 102.4-46.1 102.4-102.4V102.4c0-56.315-46.085-102.4-102.4-102.4zm68.265 307.21c0 37.632-30.612 68.265-68.265 68.265h-204.8c-37.637 0-68.265-30.633-68.265-68.265V102.4c0-37.642 30.628-68.265 68.265-68.265h204.8c37.653 0 68.265 30.623 68.265 68.265v204.81z" data-original="#ED801F" xmlns="http://www.w3.org/2000/svg"/><circle cx="315.755" cy="93.865" r="25.6" data-original="#ED801F" xmlns="http://www.w3.org/2000/svg"/><path d="M204.805 102.4c-56.566 0-102.4 45.839-102.4 102.4 0 56.54 45.834 102.41 102.4 102.41 56.55 0 102.4-45.87 102.4-102.41 0-56.561-45.85-102.4-102.4-102.4zm0 170.675c-37.699 0-68.265-30.566-68.265-68.275s30.566-68.265 68.265-68.265 68.265 30.556 68.265 68.265-30.566 68.275-68.265 68.275z" data-original="#ED801F" xmlns="http://www.w3.org/2000/svg"/></symbol><symbol viewBox="0 0 49.652 49.652" id="instagr" xmlns="http://www.w3.org/2000/svg"><g xmlns="http://www.w3.org/2000/svg"><path d="M24.825 29.796a4.978 4.978 0 0 0 4.972-4.97 4.954 4.954 0 0 0-.94-2.897 4.964 4.964 0 0 0-4.029-2.073c-1.659 0-3.126.82-4.031 2.072a4.947 4.947 0 0 0-.94 2.897 4.973 4.973 0 0 0 4.968 4.971z" data-original="#000000"/><path d="M35.678 18.746V13.96l-.623.002-4.164.013.016 4.787z" data-original="#ED801F"/><path d="M24.826 0C11.137 0 0 11.137 0 24.826c0 13.688 11.137 24.826 24.826 24.826 13.688 0 24.826-11.138 24.826-24.826C49.652 11.137 38.516 0 24.826 0zm14.119 21.929v11.56a5.463 5.463 0 0 1-5.457 5.458H16.164a5.462 5.462 0 0 1-5.457-5.458V16.165a5.462 5.462 0 0 1 5.457-5.457h17.323a5.463 5.463 0 0 1 5.458 5.457z" data-original="#ED801F"/><path d="M32.549 24.826c0 4.257-3.464 7.723-7.723 7.723s-7.722-3.466-7.722-7.723a7.67 7.67 0 0 1 .568-2.897h-4.215v11.56a2.706 2.706 0 0 0 2.706 2.704h17.323a2.707 2.707 0 0 0 2.706-2.704v-11.56h-4.217c.367.894.574 1.873.574 2.897z" data-original="#ED801F"/></g></symbol><symbol viewBox="0 0 152 152" id="instagram" xmlns="http://www.w3.org/2000/svg"><g data-name="Layer 2"><g data-name="03.Instagram" xmlns="http://www.w3.org/2000/svg"><rect height="152" rx="76" width="152" data-original="url(#linear-gradient)"/><path d="M133.2 26c-11.08 20.34-26.75 41.32-46.33 60.9S46.31 122.12 26 133.2q-1.91-1.66-3.71-3.46A76 76 0 1 1 129.74 22.26q1.8 1.8 3.46 3.74z" opacity=".1"/><path d="M94 36H58a22 22 0 0 0-22 22v36a22 22 0 0 0 22 22h36a22 22 0 0 0 22-22V58a22 22 0 0 0-22-22zm15 54.84A18.16 18.16 0 0 1 90.84 109H61.16A18.16 18.16 0 0 1 43 90.84V61.16A18.16 18.16 0 0 1 61.16 43h29.68A18.16 18.16 0 0 1 109 61.16z"/><path d="M90.59 61.56l-.19-.19-.16-.16A20.16 20.16 0 0 0 76 55.33 20.52 20.52 0 0 0 55.62 76a20.75 20.75 0 0 0 6 14.61 20.19 20.19 0 0 0 14.42 6 20.73 20.73 0 0 0 14.55-35.05zM76 89.56A13.56 13.56 0 1 1 89.37 76 13.46 13.46 0 0 1 76 89.56zm26.43-35.18a4.88 4.88 0 0 1-4.85 4.92 4.81 4.81 0 0 1-3.42-1.43 4.93 4.93 0 0 1 3.43-8.39 4.82 4.82 0 0 1 3.09 1.12l.1.1a3.05 3.05 0 0 1 .44.44l.11.12a4.92 4.92 0 0 1 1.1 3.12z"/></g></g></symbol><symbol viewBox="0 0 505.709 505.709" id="phone" xmlns="http://www.w3.org/2000/svg"><path d="M427.554 71.862c-99.206-95.816-256.486-95.816-355.692 0-98.222 101.697-95.405 263.762 6.292 361.984 99.206 95.816 256.486 95.816 355.692 0 98.222-101.696 95.405-263.762-6.292-361.984zm-5.74 349.952l-.085-.085c-93.352 93.267-244.636 93.198-337.903-.154S-9.372 176.94 83.98 83.673s244.636-93.198 337.903.153a238.932 238.932 0 0 1 69.905 169.028 238.934 238.934 0 0 1-69.974 168.96z" data-original="#000000" xmlns="http://www.w3.org/2000/svg"/><path d="M396.641 325.729l-47.957-47.787c-10.884-10.91-28.552-10.931-39.462-.047l-.047.047-27.477 27.477a6.058 6.058 0 0 1-7.765.683 310.599 310.599 0 0 1-42.069-35.328 312.33 312.33 0 0 1-31.915-37.291 5.973 5.973 0 0 1 .597-7.765l28.16-28.16c10.872-10.893 10.872-28.531 0-39.424l-47.957-47.957c-11.051-10.565-28.458-10.565-39.509 0l-15.189 15.189c-22.939 22.681-31.128 56.359-21.163 87.04a255.982 255.982 0 0 0 31.232 63.317 323.712 323.712 0 0 0 40.96 49.835 321.547 321.547 0 0 0 54.869 44.288 244.287 244.287 0 0 0 70.997 31.573 82.193 82.193 0 0 0 19.797 2.389 86.357 86.357 0 0 0 60.843-25.6l13.056-13.056c10.871-10.892 10.871-28.53-.001-39.423zm-12.084 27.785l-.034.034.085-.256-13.056 13.056a68.267 68.267 0 0 1-64.427 18.432 226.834 226.834 0 0 1-65.877-29.525 304.371 304.371 0 0 1-51.968-41.899 306.71 306.71 0 0 1-38.827-47.104 238.907 238.907 0 0 1-29.184-59.051 68.265 68.265 0 0 1 17.067-69.717l15.189-15.189c4.223-4.242 11.085-4.257 15.326-.034l.034.034 47.957 47.957c4.242 4.223 4.257 11.085.034 15.326l-.034.034-28.16 28.16c-8.08 7.992-9.096 20.692-2.389 29.867A329.334 329.334 0 0 0 220 282.978a327.314 327.314 0 0 0 44.373 37.291c9.167 6.394 21.595 5.316 29.525-2.56l27.221-27.648c4.223-4.242 11.085-4.257 15.326-.034l.034.034 48.043 48.128c4.243 4.222 4.258 11.083.035 15.325z" data-original="#000000" xmlns="http://www.w3.org/2000/svg"/></symbol><symbol viewBox="0 0 24 24" id="viber" xmlns="http://www.w3.org/2000/svg"><g xmlns="http://www.w3.org/2000/svg"><path d="M23.155 13.893c.716-6.027-.344-9.832-2.256-11.553l.001-.001C17.814-.6 7.392-1.035 3.7 2.471 2.042 4.186 1.458 6.703 1.394 9.819c-.064 3.117-.14 8.956 5.301 10.54H6.7l-.005 2.419s-.037.98.589 1.177c.716.232 1.04-.223 3.267-2.883 3.724.323 6.584-.417 6.909-.525.752-.252 5.007-.815 5.695-6.654zM10.918 19.37s-2.357 2.939-3.09 3.702c-.24.248-.503.225-.499-.267 0-.323.018-4.016.018-4.016-4.613-1.322-4.341-6.294-4.291-8.895.05-2.602.526-4.733 1.93-6.168C8.225.689 17.362 1.368 19.69 3.556c2.846 2.523 1.833 9.651 1.839 9.894-.585 4.874-4.033 5.183-4.667 5.394-.271.09-2.786.737-5.944.526z"/><path d="M12.222 4.297c-.385 0-.385.6 0 .605 2.987.023 5.447 2.105 5.474 5.924 0 .403.59.398.585-.005h-.001c-.032-4.115-2.718-6.501-6.058-6.524z" data-original="#8e24aa"/><path d="M16.151 10.193c-.009.398.58.417.585.014.049-2.269-1.35-4.138-3.979-4.335-.385-.028-.425.577-.041.605 2.28.173 3.481 1.729 3.435 3.716zm-.63 2.581c-.494-.286-.997-.108-1.205.173l-.435.563c-.221.286-.634.248-.634.248-3.014-.797-3.82-3.951-3.82-3.951s-.037-.427.239-.656l.544-.45c.272-.216.444-.736.167-1.247-.74-1.337-1.237-1.798-1.49-2.152-.266-.333-.666-.408-1.082-.183h-.009c-.865.506-1.812 1.453-1.509 2.428.517 1.028 1.467 4.305 4.495 6.781 1.423 1.171 3.675 2.371 4.631 2.648l.009.014c.942.314 1.858-.67 2.347-1.561v-.007c.217-.431.145-.839-.172-1.106-.562-.548-1.41-1.153-2.076-1.542z" data-original="#8e24aa"/><path d="M13.169 8.104c.961.056 1.427.558 1.477 1.589.018.403.603.375.585-.028-.064-1.346-.766-2.096-2.03-2.166-.385-.023-.421.582-.032.605z" data-original="#8e24aa"/></g></symbol><symbol viewBox="0 0 25 25" id="vk" xmlns="http://www.w3.org/2000/svg"><g data-name="Layer 2"><path d="M88 0a88 88 0 1 0 88 88A88 88 0 0 0 88 0zm50.72 122.44c-2.56.36-15.08 0-15.73 0a12.29 12.29 0 0 1-8.69-3.44c-2.64-2.55-5-5.35-7.58-8a20.22 20.22 0 0 0-2.47-2.24c-2.06-1.58-4.1-1.23-5.07 1.21A47.37 47.37 0 0 0 97.6 118c-.17 2.46-1.73 4-4.49 4.17-1.71.09-3.42.13-5.11.08a38.85 38.85 0 0 1-17.69-4.37 48.15 48.15 0 0 1-15.13-13.22c-6.67-8.52-12-17.88-16.76-27.53-.25-.49-5.13-10.87-5.25-11.36-.44-1.63 0-3.2 1.35-3.75.86-.33 16.94 0 17.21 0a5.64 5.64 0 0 1 5.4 3.89 84 84 0 0 0 12.08 21.18 11.56 11.56 0 0 0 2.45 2.23c1.31.9 2.55.59 3.09-.93a26.28 26.28 0 0 0 1.12-6.45c.09-4.34 0-7.19-.24-11.53-.16-2.78-1.14-5.21-5.24-6-1.26-.23-1.37-1.27-.56-2.31 1.69-2.15 4-2.5 6.59-2.63 3.86-.22 7.72-.07 11.58 0h.84a23.91 23.91 0 0 1 5 .51 4.61 4.61 0 0 1 3.67 4.11 16 16 0 0 1 .25 3.32c-.1 4.73-.33 9.47-.38 14.2a24.3 24.3 0 0 0 .51 5.59c.55 2.52 2.28 3.15 4 1.33A62.34 62.34 0 0 0 108 81a75.78 75.78 0 0 0 8-15.55c1.12-2.81 2-3.43 5-3.43h17.06a10.12 10.12 0 0 1 3 .4 2.59 2.59 0 0 1 1.79 3.35c-.84 3.74-2.86 6.93-5 10-3.47 4.91-7.13 9.7-10.68 14.55a19.78 19.78 0 0 0-1.17 1.95c-1.34 2.42-1.24 3.77.7 5.77 3.1 3.19 6.41 6.17 9.4 9.45a55.77 55.77 0 0 1 5.92 7.69c2.13 3.44.78 6.68-3.3 7.26z" data-original="#ED801F" data-name="11.vk" xmlns="http://www.w3.org/2000/svg"/></g></symbol><symbol viewBox="0 0 418.135 418.135" id="whatsapp" xmlns="http://www.w3.org/2000/svg"><g xmlns="http://www.w3.org/2000/svg"><path d="M198.929.242C88.5 5.5 1.356 97.466 1.691 208.02c.102 33.672 8.231 65.454 22.571 93.536L2.245 408.429c-1.191 5.781 4.023 10.843 9.766 9.483l104.723-24.811c26.905 13.402 57.125 21.143 89.108 21.631 112.869 1.724 206.982-87.897 210.5-200.724C420.113 93.065 320.295-5.538 198.929.242zm124.957 321.955c-30.669 30.669-71.446 47.559-114.818 47.559-25.396 0-49.71-5.698-72.269-16.935l-14.584-7.265-64.206 15.212 13.515-65.607-7.185-14.07c-11.711-22.935-17.649-47.736-17.649-73.713 0-43.373 16.89-84.149 47.559-114.819 30.395-30.395 71.837-47.56 114.822-47.56 43.372.001 84.147 16.891 114.816 47.559 30.669 30.669 47.559 71.445 47.56 114.817-.001 42.986-17.166 84.428-47.561 114.822z" data-original="#7ad06d"/><path d="M309.712 252.351l-40.169-11.534a14.971 14.971 0 0 0-14.816 3.903l-9.823 10.008c-4.142 4.22-10.427 5.576-15.909 3.358-19.002-7.69-58.974-43.23-69.182-61.007-2.945-5.128-2.458-11.539 1.158-16.218l8.576-11.095a14.97 14.97 0 0 0 1.847-15.21l-16.9-38.223c-4.048-9.155-15.747-11.82-23.39-5.356-11.211 9.482-24.513 23.891-26.13 39.854-2.851 28.144 9.219 63.622 54.862 106.222 52.73 49.215 94.956 55.717 122.449 49.057 15.594-3.777 28.056-18.919 35.921-31.317 5.362-8.453 1.128-19.679-8.494-22.442z" data-original="#7ad06d"/></g></symbol></svg>