<svg width="20" height="20" fill="none" xmlns="http://www.w3.org/2000/svg">
    <mask id="a" style="mask-type:alpha" maskUnits="userSpaceOnUse" x="1" y="4" width="19" height="13">
        <path d="M12.85 10.395c0 1.182-.239 2.237-.717 3.163a5.249 5.249 0 0 1-2.045 2.158c-.885.522-1.9.784-3.043.784-.82 0-1.603-.165-2.35-.494a6.044 6.044 0 0 1-1.93-1.33 6.277 6.277 0 0 1-1.287-1.996A6.312 6.312 0 0 1 1 10.25c0-.847.16-1.657.478-2.43a6.277 6.277 0 0 1 1.287-1.995c.539-.557 1.182-1 1.93-1.33A5.763 5.763 0 0 1 7.044 4c1.572 0 2.922.546 4.049 1.637L9.453 7.266c-.644-.643-1.446-.964-2.408-.964-.677 0-1.303.176-1.88.529a3.833 3.833 0 0 0-1.361 1.44A4 4 0 0 0 3.3 10.25c0 .716.167 1.379.503 1.987.335.602.789 1.08 1.36 1.432a3.542 3.542 0 0 0 1.88.529c.457 0 .875-.066 1.254-.196.385-.131.701-.293.949-.486a3.5 3.5 0 0 0 .643-.674c.187-.25.321-.486.404-.708.088-.221.148-.432.181-.63h-3.43v-2.15h5.706c.066.359.1.706.1 1.041ZM20 9.355v1.79h-1.724v1.782h-1.731v-1.782H14.82v-1.79h1.724V7.573h1.731v1.782H20Z" fill="#3205F3"/>
    </mask>
    <g mask="url(#a)">
        <rect x="-.23" width="24" height="24" rx="10" fill="#F2F7F9"/>
    </g>
</svg>
