<svg width="24" height="24" fill="none" xmlns="http://www.w3.org/2000/svg">
    <path d="M15 4H9a5 5 0 0 0-5 5v6a5 5 0 0 0 5 5h6a5 5 0 0 0 5-5V9a5 5 0 0 0-5-5Zm3.5 11c0 1.93-1.57 3.5-3.5 3.5H9c-1.93 0-3.5-1.57-3.5-3.5V9c0-1.93 1.57-3.5 3.5-3.5h6c1.93 0 3.5 1.57 3.5 3.5v6Z" fill="#fff"/>
    <path d="M12 8a4 4 0 1 0 0 8 4 4 0 0 0 0-8Zm0 6.5A2.503 2.503 0 0 1 9.5 12c0-1.379 1.122-2.5 2.5-2.5s2.5 1.121 2.5 2.5c0 1.378-1.122 2.5-2.5 2.5ZM16.3 8.233a.533.533 0 1 0 0-1.066.533.533 0 0 0 0 1.066Z" fill="#fff"/>
</svg>
