<svg width="58" height="58" fill="none" xmlns="http://www.w3.org/2000/svg">
    <path d="M41.528 5.769 55 19.24l-.528.528H58v-14H41.528ZM24.174 5.769H7a7 7 0 0 0 0 14h4.23l-.528-.528L24.174 5.769Z" fill="#779C19"/>
    <path d="M16.543 8.252a51.15 51.15 0 0 1-1.961.104 1 1 0 0 0 .035 1.999l.037-.001a53.084 53.084 0 0 0 2.037-.108 1 1 0 0 0-.148-1.994ZM10.588 8.454c-.696.02-1.379.045-2.034.086a1 1 0 0 0 .06 1.998l.063-.002a57.08 57.08 0 0 1 1.966-.082c.552-.016.987-.475.973-1.027-.014-.552-.492-.947-1.028-.973ZM4.359 9.204c-.907.297-1.602.694-2.12 1.213a.999.999 0 1 0 1.414 1.414c.288-.287.734-.532 1.329-.727a1 1 0 0 0-.623-1.9ZM50 8.769h-2a1 1 0 1 0 0 2h2a1 1 0 1 0 0-2ZM56 8.769h-2a1 1 0 1 0 0 2h2a1 1 0 1 0 0-2Z" fill="#9ABD0D"/>
    <path d="M55.556 19.768 35.8.041a.139.139 0 0 0-.196 0L15.85 19.768h39.707Z" fill="#EAEAD6"/>
    <path d="M15.876 19.768 32.851 2.793 30.098.041a.139.139 0 0 0-.196 0L10.147 19.768h5.729Z" fill="#BFBDA3"/>
    <path d="m47.331 20.394.309-.31L35.759 8.22a.08.08 0 0 0-.115 0L23.769 20.085l.309.309h23.253Z" fill="#6D8C60"/>
    <path d="M0 12.769v38.848a6.152 6.152 0 0 0 6.152 6.152H58v-38H7a7 7 0 0 1-7-7Z" fill="#9ABD0D"/>
    <path d="M52 24.768h-2a1 1 0 1 1 0-2h2a1 1 0 1 1 0 2Zm-6 0h-2a1 1 0 1 1 0-2h2a1 1 0 1 1 0 2Zm-6 0h-2a1 1 0 1 1 0-2h2a1 1 0 1 1 0 2Zm-6 0h-2a1 1 0 1 1 0-2h2a1 1 0 1 1 0 2Zm-6 0h-2a1 1 0 1 1 0-2h2a1 1 0 1 1 0 2Zm-6 0h-2a1 1 0 1 1 0-2h2a1 1 0 1 1 0 2Zm-6 0h-2a1 1 0 1 1 0-2h2a1 1 0 1 1 0 2Zm-6 0H8a1 1 0 1 1 0-2h2a1 1 0 1 1 0 2Zm-5.91-.63a.99.99 0 0 1-.414-.09 8.008 8.008 0 0 1-1.914-1.232 1.002 1.002 0 0 1 1.31-1.513c.433.376.916.687 1.436.925a1 1 0 0 1-.417 1.91ZM52 54.768h-2a1 1 0 1 1 0-2h2a1 1 0 1 1 0 2Zm-6 0h-2a1 1 0 1 1 0-2h2a1 1 0 1 1 0 2Zm-6 0h-2a1 1 0 1 1 0-2h2a1 1 0 1 1 0 2Zm-6 0h-2a1 1 0 1 1 0-2h2a1 1 0 1 1 0 2Zm-6 0h-2a1 1 0 1 1 0-2h2a1 1 0 1 1 0 2Zm-6 0h-2a1 1 0 1 1 0-2h2a1 1 0 1 1 0 2Zm-6 0h-2a1 1 0 1 1 0-2h2a1 1 0 1 1 0 2Zm-6 0H8a1 1 0 1 1 0-2h2a1 1 0 1 1 0 2Zm-5.91-.63a.99.99 0 0 1-.414-.09 8.008 8.008 0 0 1-1.914-1.232 1.002 1.002 0 0 1 1.31-1.513c.433.376.916.687 1.436.925a1 1 0 0 1-.417 1.91Z" fill="#B3DB4B"/>
    <path opacity=".2" d="M58 44.935H46a6 6 0 1 1 0-12h12v12Z" fill="#414141"/>
    <path d="M58 43.769H46a6 6 0 1 1 0-12h12v12Z" fill="#5DA106"/>
    <path d="M47 40.769a3 3 0 1 0 0-6 3 3 0 0 0 0 6Z" fill="#EFCE4A"/>
</svg>
